<svg id="facebook" xmlns="http://www.w3.org/2000/svg" width="413.279" height="413.281" viewBox="0 0 413.279 413.281">
  <path id="Subtraction_2" data-name="Subtraction 2" d="M206.65,413.281C92.7,413.281,0,320.584,0,206.643S92.7,0,206.65,0,413.279,92.7,413.279,206.643,320.586,413.281,206.65,413.281ZM151.986,162.739a3.125,3.125,0,0,0-3.115,3.128v36.67a3.118,3.118,0,0,0,3.115,3.114h22.248v1.955l.011,119.767a3.12,3.12,0,0,0,3.116,3.116h44.47a3.125,3.125,0,0,0,3.128-3.116V205.651H257.2a3.1,3.1,0,0,0,3.1-2.846l3.091-36.674a3.117,3.117,0,0,0-3.1-3.391H224.958V136.725a11.047,11.047,0,0,1,11.029-11.041h24.851a3.125,3.125,0,0,0,3.127-3.116V85.886a3.125,3.125,0,0,0-3.127-3.116H218.855a44.673,44.673,0,0,0-44.622,44.621v35.347Z" fill="#ffcd00"/>
</svg>
