<svg xmlns="http://www.w3.org/2000/svg" width="80" height="80" viewBox="0 0 80 80">
  <defs>
    <style>
      .cls-1 {
        fill: #1c1c1b;
        fill-rule: evenodd;
      }
    </style>
  </defs>
  <path id="gmail" class="cls-1" d="M40,0A40,40,0,1,0,80,40,40,40,0,0,0,40,0ZM60,56.39a3.331,3.331,0,0,0,3.33-3.33v-26.4A3.333,3.333,0,0,0,60,23.333H20a3.333,3.333,0,0,0-3.33,3.33v26.4A3.333,3.333,0,0,0,20,56.39ZM40,44.557,21.833,31.95,21.8,54.443h36.33V31.95Zm17.247-19.28C52.157,28.823,40,37.39,40,37.39L22.657,25.277Z"/>
</svg>
