<svg xmlns="http://www.w3.org/2000/svg" width="413.272" height="413.272" viewBox="0 0 413.272 413.272">
  <path id="spotify" d="M328.861,183.183C262.256,143.629,152.394,140,88.8,159.3a19.325,19.325,0,0,1-11.21-36.988c72.994-22.162,194.324-17.874,271,27.638a19.326,19.326,0,1,1-19.734,33.234Zm-2.17,58.6a16.133,16.133,0,0,1-22.162,5.3c-55.533-34.129-140.2-44.031-205.913-24.09a16.105,16.105,0,1,1-9.35-30.823c75.043-22.764,168.34-11.744,232.121,27.465A16.109,16.109,0,0,1,326.692,241.782Zm-25.3,56.257a12.847,12.847,0,0,1-17.7,4.288c-48.525-29.652-109.6-36.351-181.53-19.923A12.876,12.876,0,0,1,96.43,257.3c78.711-17.995,146.229-10.246,200.7,23.04A12.857,12.857,0,0,1,301.4,298.038ZM206.636,0C92.521,0,0,92.521,0,206.636,0,320.768,92.521,413.272,206.636,413.272c114.132,0,206.636-92.5,206.636-206.636C413.272,92.521,320.768,0,206.636,0Z" fill="#ffcd00" fill-rule="evenodd"/>
</svg>
