<svg xmlns="http://www.w3.org/2000/svg" width="32" height="32" viewBox="0 0 32 32">
  <path id="spotify_yellow" d="M25.464,14.184C20.307,11.121,11.8,10.84,6.876,12.335a1.5,1.5,0,0,1-.868-2.864c5.652-1.716,15.047-1.384,20.984,2.14a1.5,1.5,0,1,1-1.528,2.573ZM25.3,18.721a1.249,1.249,0,0,1-1.716.411A21,21,0,0,0,7.636,17.267a1.247,1.247,0,1,1-.724-2.387,23.34,23.34,0,0,1,17.973,2.127A1.247,1.247,0,0,1,25.3,18.721Zm-1.959,4.356a1,1,0,0,1-1.371.332c-3.757-2.3-8.487-2.815-14.056-1.543a1,1,0,0,1-.444-1.944c6.095-1.393,11.323-.793,15.54,1.784A1,1,0,0,1,23.337,23.077ZM16,0A16,16,0,1,0,32,16,16,16,0,0,0,16,0Z" fill="#ffcd00" fill-rule="evenodd"/>
</svg>
