<svg xmlns="http://www.w3.org/2000/svg" width="32" height="32" viewBox="0 0 32 32">
  <g id="whatsapp" transform="translate(-3.541 -1.637)">
    <g id="Group_105" data-name="Group 105" transform="translate(3.541 1.637)">
      <path id="Path_21" data-name="Path 21" d="M19.541,33.637a16,16,0,1,1,16-16A16.018,16.018,0,0,1,19.541,33.637Z" transform="translate(-3.541 -1.637)" fill="#1c1c1b"/>
    </g>
    <g id="Group_108" data-name="Group 108" transform="translate(10.636 7.222)">
      <g id="Group_106" data-name="Group 106">
        <path id="Path_22" data-name="Path 22" d="M25.3,11.164a9.659,9.659,0,0,0-8.117,14.9l-1.467,3.233a.844.844,0,0,0,.768,1.192.857.857,0,0,0,.223-.03l4.043-1.11A9.66,9.66,0,1,0,25.3,11.164Zm0,17.632a7.964,7.964,0,0,1-4.015-1.086.842.842,0,0,0-.426-.115.851.851,0,0,0-.223.03L18,28.351l.92-2.027a.843.843,0,0,0-.084-.842A7.972,7.972,0,1,1,25.3,28.8Z" transform="translate(-15.643 -11.164)" fill="#fff" fill-rule="evenodd"/>
      </g>
      <g id="Group_107" data-name="Group 107" transform="translate(4.966 5.248)">
        <path id="Path_23" data-name="Path 23" d="M32.522,25.974a1.651,1.651,0,0,0-1.408-.317c-.366.149-.6.722-.836,1.014a.35.35,0,0,1-.453.1,6.375,6.375,0,0,1-3.182-2.725.389.389,0,0,1,.049-.533,2.145,2.145,0,0,0,.577-.939,2.059,2.059,0,0,0-.258-1.111,2.632,2.632,0,0,0-.82-1.236,1.125,1.125,0,0,0-1.221.182,2.478,2.478,0,0,0-.859,1.963,2.846,2.846,0,0,0,.077.623,5.149,5.149,0,0,0,.6,1.377,10.831,10.831,0,0,0,.623.949,9.633,9.633,0,0,0,2.7,2.511,8.177,8.177,0,0,0,1.687.8,3.755,3.755,0,0,0,1.964.31,2.377,2.377,0,0,0,1.78-1.325,1.148,1.148,0,0,0,.083-.675C33.529,26.477,32.9,26.2,32.522,25.974Z" transform="translate(-24.114 -20.116)" fill="#fff" fill-rule="evenodd"/>
      </g>
    </g>
  </g>
</svg>
