<svg xmlns="http://www.w3.org/2000/svg" width="80" height="80" viewBox="0 0 80 80">
  <defs>
    <style>
      .cls-1 {
        fill: #1c1c1b;
      }

      .cls-2 {
        fill: #fff;
        fill-rule: evenodd;
      }
    </style>
  </defs>
  <g id="whatsapp" transform="translate(-3.541 -1.637)">
    <g id="Group_105" data-name="Group 105" transform="translate(3.541 1.637)">
      <path id="Path_21" data-name="Path 21" class="cls-1" d="M43.542,81.637a40,40,0,1,1,40-40A40.045,40.045,0,0,1,43.542,81.637Z" transform="translate(-3.541 -1.637)"/>
    </g>
    <g id="Group_108" data-name="Group 108" transform="translate(21.278 15.6)">
      <g id="Group_106" data-name="Group 106">
        <path id="Path_22" data-name="Path 22" class="cls-2" d="M39.793,11.164A24.147,24.147,0,0,0,19.5,48.4l-3.668,8.081a2.109,2.109,0,0,0,1.92,2.98,2.143,2.143,0,0,0,.558-.075l10.108-2.774A24.149,24.149,0,1,0,39.793,11.164Zm0,44.081a19.91,19.91,0,0,1-10.036-2.714,2.1,2.1,0,0,0-1.064-.287,2.128,2.128,0,0,0-.558.076l-6.6,1.811,2.3-5.068a2.107,2.107,0,0,0-.21-2.106,19.929,19.929,0,1,1,16.173,8.288Z" transform="translate(-15.643 -11.164)"/>
      </g>
      <g id="Group_107" data-name="Group 107" transform="translate(12.415 13.121)">
        <path id="Path_23" data-name="Path 23" class="cls-2" d="M45.135,34.762c-1.011-.605-2.329-1.281-3.519-.793-.915.374-1.5,1.8-2.09,2.534a.876.876,0,0,1-1.133.246,15.938,15.938,0,0,1-7.954-6.812.974.974,0,0,1,.123-1.332,5.362,5.362,0,0,0,1.444-2.346,5.148,5.148,0,0,0-.645-2.777c-.479-1.033-1.016-2.506-2.049-3.089a2.812,2.812,0,0,0-3.051.454,6.2,6.2,0,0,0-2.147,4.907,7.115,7.115,0,0,0,.193,1.556A12.872,12.872,0,0,0,25.8,30.752a27.078,27.078,0,0,0,1.558,2.371A24.083,24.083,0,0,0,34.123,39.4a20.441,20.441,0,0,0,4.217,2c1.653.545,3.126,1.114,4.91.775A5.943,5.943,0,0,0,47.7,38.87a2.869,2.869,0,0,0,.208-1.688C47.652,36.018,46.076,35.324,45.135,34.762Z" transform="translate(-24.114 -20.116)"/>
      </g>
    </g>
  </g>
</svg>
