<svg id="youtube" xmlns="http://www.w3.org/2000/svg" width="413.265" height="413.261" viewBox="0 0 413.265 413.261">
  <path id="Subtraction_1" data-name="Subtraction 1" d="M206.639,413.262C92.7,413.262,0,320.564,0,206.625S92.7,0,206.639,0,413.265,92.692,413.265,206.625,320.573,413.262,206.639,413.262ZM139.653,122.215A53.128,53.128,0,0,0,86.58,175.277v64.533a53.12,53.12,0,0,0,53.073,53.047H277.283a53.12,53.12,0,0,0,53.073-53.047V175.277a53.128,53.128,0,0,0-53.073-53.061Zm47.372,119.12c-1.675,0-2.938-1.543-2.938-3.585v-61.8c0-2.043,1.265-3.581,2.942-3.581a3.341,3.341,0,0,1,1.651.475l55.268,31.687a3.165,3.165,0,0,1,1.643,2.857,3.916,3.916,0,0,1-2.073,3.4l-54.9,30.116A3.349,3.349,0,0,1,187.026,241.336Z" transform="translate(0 0)" fill="#ffcd00"/>
</svg>
